<?xml version="1.0" encoding="iso-8859-1"?>
<!-- Generator: Adobe Illustrator 18.0.0, SVG Export Plug-In . SVG Version: 6.00 Build 0)  -->
<!DOCTYPE svg PUBLIC "-//W3C//DTD SVG 1.1//EN" "http://www.w3.org/Graphics/SVG/1.1/DTD/svg11.dtd">
<svg version="1.1" xmlns="http://www.w3.org/2000/svg" xmlns:xlink="http://www.w3.org/1999/xlink" x="0px" y="0px"
	 viewBox="0 0 48 48" style="enable-background:new 0 0 48 48;" xml:space="preserve">
<g id="Layer_80">
	<g>
		<circle style="fill:#58595B;" cx="24" cy="23.998" r="24"/>
		<g>
			<path style="fill:#FFFFFF;" d="M37.041,19.099c-0.047-0.038-0.09-0.054-0.133-0.072v-7.505c0-0.219-0.176-0.397-0.387-0.397
				h-9.578c-0.025-0.028-0.043-0.056-0.08-0.086l-2.369-1.875c-0.273-0.217-0.719-0.217-0.992,0l-2.367,1.875
				c-0.039,0.03-0.057,0.058-0.08,0.086h-9.56c-0.211,0-0.385,0.178-0.385,0.397v7.497c-0.049,0.016-0.098,0.038-0.152,0.08
				l-1.463,1.158C9.223,20.472,9,20.938,9,21.291v17.066C9,38.711,9.281,39,9.623,39h28.75C38.719,39,39,38.711,39,38.357V21.291
				c0-0.353-0.223-0.819-0.496-1.035L37.041,19.099z M34.846,23.839c0,0.219-0.152,0.482-0.34,0.584l-10.16,5.62
				c-0.185,0.102-0.492,0.102-0.678,0l-10.158-5.62c-0.186-0.102-0.338-0.365-0.338-0.584V13.226c0-0.219,0.172-0.397,0.383-0.397
				h20.904c0.211,0,0.387,0.178,0.387,0.397V23.839z"/>
			<rect x="15.473" y="16.225" style="fill:#FFFFFF;" width="6" height="6.167"/>
			<rect x="23.209" y="16.225" style="fill:#FFFFFF;" width="10.158" height="1.137"/>
			<rect x="23.209" y="18.538" style="fill:#FFFFFF;" width="10.158" height="1.136"/>
			<rect x="23.209" y="20.85" style="fill:#FFFFFF;" width="4.148" height="1.138"/>
		</g>
	</g>
</g>
<g id="Layer_1">
</g>
</svg>
