<?xml version="1.0" encoding="iso-8859-1"?>
<!-- Generator: Adobe Illustrator 18.0.0, SVG Export Plug-In . SVG Version: 6.00 Build 0)  -->
<!DOCTYPE svg PUBLIC "-//W3C//DTD SVG 1.1//EN" "http://www.w3.org/Graphics/SVG/1.1/DTD/svg11.dtd">
<svg version="1.1" xmlns="http://www.w3.org/2000/svg" xmlns:xlink="http://www.w3.org/1999/xlink" x="0px" y="0px"
	 viewBox="0 0 48 48" style="enable-background:new 0 0 48 48;" xml:space="preserve">
<g id="Layer_140">
	<g>
		<circle style="fill:#58595B;" cx="24" cy="24" r="24.002"/>
		<g>
			<path style="fill:#FFFFFF;" d="M13.034,19.08c0.006,1.41,0.034,2.829,0.041,4.246c0.002,1.525,0.006,3.051,0.006,4.575
				c0,8.54,7.84,10.961,9.343,10.961c1.505,0,7.396,0.138,8.459,0.138C31.948,39,35,38.721,35,35.663C35,32.605,32.834,32,31.372,32
				h-5.849c-4.16,0-4.825-2.315-4.825-4.005c0-0.803,0.051-2.375,0.101-3.995h9.773c1.464,0,4.251-0.344,4.251-2.993
				c0-2.646-1.286-4.007-3.012-4.007H20.921c-0.012-3.819-0.262-8-4.03-8c-1.558,0-2.823,0.634-3.356,2.208
				c-0.7,2.067-0.515,4.488-0.507,6.642C13.032,18.259,13.034,18.67,13.034,19.08z"/>
		</g>
	</g>
</g>
<g id="Layer_1">
</g>
</svg>
